<?xml version="1.0" encoding="utf-8"?>
<!-- Generator: Adobe Illustrator 25.4.1, SVG Export Plug-In . SVG Version: 6.00 Build 0)  -->
<svg version="1.1" id="Layer_1" xmlns="http://www.w3.org/2000/svg" xmlns:xlink="http://www.w3.org/1999/xlink" x="0px" y="0px"
	 viewBox="0 0 140 32" style="enable-background:new 0 0 140 32;" xml:space="preserve">
<g>
	<g>
		<g>
			<path d="M32.75,19.99l-0.52,3.35h-0.45c-0.11-0.15-0.22-0.22-0.78-0.22h-7.57v-0.49h0.4c0.54,0,0.95-0.29,0.95-1.17v-7.84
				c0-0.65-0.4-0.95-0.93-0.95H23.6v-0.54h7.43c0.33,0,0.46-0.08,0.58-0.22h0.44l0.14,2.82l-0.47,0.03
				c-0.22-0.98-0.53-1.55-1.35-1.55h-3.6v3.58h2.79c0.6,0,0.85-0.33,0.85-0.99v-0.16h0.52v3.58h-0.55v-0.37
				c0-0.7-0.37-0.98-0.86-0.98h-2.75v4.16h3.38c1.02,0,1.57-0.8,2.11-2.16L32.75,19.99z"/>
			<path d="M22.74,23.12H18.7v-0.51h0.22c0.48,0,0.77-0.22,0.77-0.86v-3.79h-4.68v3.79c0,0.62,0.33,0.86,0.69,0.86h0.36v0.51h-4.04
				V22.6h0.22c0.48,0,0.77-0.23,0.77-0.87v-8.21c0-0.54-0.3-0.87-0.77-0.87h-0.22v-0.52h4.04v0.52h-0.36c-0.4,0-0.69,0.22-0.69,0.82
				v3.39h4.68v-3.35c0-0.63-0.29-0.87-0.77-0.87H18.7v-0.52h4.04v0.52h-0.36c-0.46,0-0.69,0.3-0.69,0.82v8.31
				c0,0.59,0.33,0.84,0.69,0.84h0.36V23.12z"/>
			<path d="M11.66,12.61l-0.51,0.05c-0.26-1.41-0.83-1.78-1.73-1.78H6.99V21.5c0,0.67,0.31,1.1,0.87,1.1h0.4v0.52H3.39v-0.54h0.3
				c0.66,0,0.98-0.3,0.98-1.08V10.88H2.31c-0.97,0-1.51,0.33-1.79,1.8L0,12.62l0.15-3.3h0.48c0.08,0.14,0.19,0.22,0.59,0.22h9.25
				c0.39,0,0.51-0.11,0.58-0.22h0.47L11.66,12.61z"/>
		</g>
		<g>
			<path d="M118.78,19.99l-0.51,3.35h-0.45c-0.11-0.15-0.22-0.22-0.78-0.22h-7.57v-0.49h0.4c0.54,0,0.95-0.29,0.95-1.17v-7.84
				c0-0.65-0.4-0.95-0.93-0.95h-0.23v-0.54h7.43c0.33,0,0.45-0.08,0.56-0.22h0.45l0.14,2.82l-0.47,0.03
				c-0.22-0.98-0.53-1.55-1.35-1.55h-3.6v3.58h2.79c0.6,0,0.85-0.33,0.85-0.99v-0.16h0.52v3.58h-0.55v-0.37
				c0-0.7-0.37-0.98-0.87-0.98h-2.75v4.16h3.38c1.02,0,1.57-0.8,2.11-2.16L118.78,19.99z"/>
			<path d="M109.35,20.16c0,2.08-1.76,3.17-3.75,3.17c-0.84,0-1.42-0.1-1.87-0.21c-0.32-0.07-0.7-0.21-1.03-0.21
				c-0.31,0-0.38,0.11-0.48,0.32h-0.43l-0.56-3.27l0.52-0.11c0.48,1.6,1.62,2.46,3.53,2.46c1.24,0,2.07-0.63,2.07-1.63
				c0-0.87-0.49-1.45-1.65-2l-1.95-0.95c-1.48-0.71-2.28-1.52-2.28-2.98c0-1.68,1.56-2.79,3.46-2.79c0.81,0,1.39,0.12,1.81,0.23
				c0.21,0.06,0.37,0.12,0.51,0.16c0.14,0.04,0.24,0.07,0.32,0.07c0.4,0,0.47-0.06,0.6-0.36h0.43l0.15,3.08l-0.44,0.03
				c-0.53-1.58-1.43-2.16-3.17-2.16c-1.12,0-1.73,0.51-1.73,1.33c0,0.73,0.54,1.13,1.33,1.51l2.18,1.06
				C108.51,17.68,109.35,18.74,109.35,20.16z"/>
			<path d="M100.66,20.16c0,2.08-1.76,3.17-3.75,3.17c-0.84,0-1.42-0.1-1.87-0.21c-0.32-0.07-0.7-0.21-1.03-0.21
				c-0.31,0-0.38,0.11-0.48,0.32h-0.43l-0.56-3.27l0.52-0.11c0.48,1.6,1.62,2.46,3.53,2.46c1.24,0,2.07-0.63,2.07-1.63
				c0-0.87-0.5-1.45-1.65-2l-1.95-0.95c-1.48-0.71-2.28-1.52-2.28-2.98c0-1.68,1.56-2.79,3.46-2.79c0.81,0,1.39,0.12,1.81,0.23
				c0.21,0.06,0.37,0.12,0.51,0.16c0.14,0.04,0.24,0.07,0.32,0.07c0.4,0,0.47-0.06,0.6-0.36h0.43l0.15,3.08l-0.44,0.03
				c-0.53-1.58-1.43-2.16-3.17-2.16c-1.12,0-1.73,0.51-1.73,1.33c0,0.73,0.54,1.13,1.33,1.51l2.18,1.06
				C99.82,17.68,100.66,18.74,100.66,20.16z"/>
			<path d="M92.05,19.99l-0.52,3.35h-0.45c-0.11-0.15-0.22-0.22-0.78-0.22h-7.57v-0.49h0.4c0.54,0,0.95-0.29,0.95-1.17v-7.84
				c0-0.65-0.4-0.95-0.93-0.95h-0.23v-0.54h7.43c0.33,0,0.46-0.08,0.58-0.22h0.44l0.14,2.82l-0.47,0.03
				c-0.22-0.98-0.53-1.55-1.35-1.55h-3.6v3.58h2.79c0.6,0,0.85-0.33,0.85-0.99v-0.16h0.52v3.58h-0.55v-0.37
				c0-0.7-0.37-0.98-0.87-0.98h-2.75v4.16h3.38c1.02,0,1.57-0.8,2.11-2.16L92.05,19.99z"/>
			<path d="M82.3,12.65H82c-0.49,0-0.74,0.26-0.74,0.84v8.58c0,0.25,0.01,0.76,0.07,1.1l-0.62,0.14c-0.05-0.12-0.09-0.23-0.15-0.34
				c-0.07-0.12-0.19-0.29-0.44-0.59l-6.15-7.28v6.74c0,0.54,0.25,0.8,0.96,0.8h0.32v0.49h-3.53v-0.49h0.26
				c0.46,0,0.74-0.24,0.74-0.74v-8.16c0-0.77-0.49-1.08-1.06-1.08h-0.27v-0.51h2.82l5.81,6.88v-5.51c0-0.58-0.23-0.87-0.95-0.87
				h-0.3v-0.51h3.54V12.65z"/>
			<path d="M70.85,12.65h-0.3c-0.49,0-0.74,0.26-0.74,0.84v8.58c0,0.25,0.01,0.76,0.07,1.1l-0.62,0.14
				c-0.04-0.12-0.09-0.23-0.15-0.34c-0.07-0.12-0.19-0.29-0.44-0.59l-6.15-7.28v6.74c0,0.54,0.25,0.8,0.96,0.8h0.32v0.49h-3.53
				v-0.49h0.26c0.46,0,0.74-0.24,0.74-0.74v-8.16c0-0.77-0.49-1.08-1.06-1.08h-0.27v-0.51h2.82l5.81,6.88v-5.51
				c0-0.58-0.23-0.87-0.95-0.87h-0.3v-0.51h3.54V12.65z"/>
			<path d="M59.82,19.99l-0.51,3.35h-0.45c-0.11-0.15-0.22-0.22-0.78-0.22h-7.57v-0.49h0.4c0.54,0,0.95-0.29,0.95-1.17v-7.84
				c0-0.65-0.4-0.95-0.93-0.95h-0.23v-0.54h7.43c0.33,0,0.45-0.08,0.56-0.22h0.45l0.14,2.82l-0.47,0.03
				c-0.22-0.98-0.53-1.55-1.35-1.55h-3.6v3.58h2.79c0.6,0,0.85-0.33,0.85-0.99v-0.16h0.52v3.58h-0.55v-0.37
				c0-0.7-0.37-0.98-0.86-0.98h-2.75v4.16h3.38c1.02,0,1.57-0.8,2.11-2.16L59.82,19.99z"/>
			<path d="M50.23,12.61l-0.51,0.05c-0.26-1.41-0.83-1.78-1.73-1.78h-2.43V21.5c0,0.67,0.31,1.1,0.86,1.1h0.4v0.52h-4.86v-0.54h0.3
				c0.66,0,0.97-0.3,0.97-1.08V10.88h-2.36c-0.97,0-1.51,0.33-1.79,1.8l-0.52-0.06l0.15-3.3h0.48c0.08,0.14,0.19,0.22,0.59,0.22
				h9.25c0.39,0,0.51-0.11,0.58-0.22h0.47L50.23,12.61z"/>
			<path d="M140,12.65h-0.3c-0.49,0-0.74,0.26-0.74,0.84v8.58c0,0.25,0.01,0.76,0.07,1.1l-0.62,0.14c-0.04-0.12-0.09-0.23-0.15-0.34
				c-0.07-0.12-0.19-0.29-0.44-0.59l-6.17-7.28v6.74c0,0.54,0.25,0.8,0.96,0.8h0.32v0.49h-7.35v-0.49h0.21
				c0.51,0,0.63-0.21,0.63-0.37c0-0.16-0.13-0.48-0.21-0.67l-0.58-1.52h-3.6l-0.7,1.85c-0.06,0.17-0.1,0.36-0.1,0.48
				c0,0.12,0.09,0.23,0.43,0.23h0.22v0.49h-3.05v-0.49H119c0.51,0,0.71-0.16,0.99-0.85l3.69-8.94c0.1-0.24,0.19-0.57,0.19-0.8
				l0.65-0.1c0.06,0.22,0.14,0.49,0.19,0.62l3.67,9.08c0.34,0.83,0.62,0.99,1.04,0.99h0.23c0.46,0,0.74-0.24,0.74-0.74v-8.16
				c0-0.77-0.49-1.08-1.06-1.08h-0.27v-0.51h2.82l5.82,6.88v-5.51c0-0.58-0.23-0.87-0.95-0.87h-0.3v-0.51H140V12.65z M125.24,18.98
				l-1.37-3.68l-1.4,3.68H125.24z"/>
		</g>
	</g>
</g>
</svg>
